<svg width="870" height="538" viewBox="0 0 870 538" fill="none" xmlns="http://www.w3.org/2000/svg">
<path d="M458.666 2.9917C447.333 10.725 450 13.7917 467.733 14.0584C480.266 14.1917 481.333 14.325 488.4 18.725C500 25.7917 508.4 39.2584 510.133 53.525C511.066 61.3917 508.266 74.325 504 82.5917C498 94.4584 483.466 103.925 469.866 105.125C454.266 106.325 442.4 101.258 430.4 88.1917C421.6 78.725 418.666 71.2584 418.666 58.5917C418.666 50.5917 419.333 48.325 424.133 39.2584C430.133 27.7917 430.4 24.0584 425.066 22.1917C419.6 20.325 411.333 23.3917 405.066 29.6584C393.733 40.9917 389.333 59.2584 394 75.525C405.6 115.792 458.133 136.858 493.2 115.392C507.866 106.458 516.533 94.725 521.466 76.725C530.266 44.325 514.266 10.325 486.133 2.05837C475.866 -1.0083 464 -0.608301 458.666 2.9917Z" fill="#8FA8B8"/>
<path d="M457.067 48.4586C449.467 54.8586 448.267 64.5919 454.4 70.7252C461.467 77.7919 472.8 77.2586 478.667 69.6586C481.867 65.6586 482.133 56.5919 479.2 52.3252C474.267 45.2586 463.2 43.2586 457.067 48.4586Z" fill="#8FA8B8"/>
<path d="M829.333 134.858C818 135.525 799.333 136.592 788 137.392C776.667 138.058 753.2 139.392 736 140.058C690.933 142.058 671.6 145.392 644.133 155.925C622.933 163.925 584.8 190.992 572 206.992C568.4 211.659 554.4 229.125 541.067 246.059C527.733 262.859 516.4 276.992 516 277.392C515.6 277.792 508.4 286.192 500 296.059C491.6 305.925 479.2 320.192 472.4 327.659C456.933 344.725 455.2 350.592 464.267 353.925C470.533 356.192 474.933 353.659 485.867 341.659C502.133 323.925 567.867 258.725 587.333 240.992C620.267 210.992 642.533 199.659 699.333 183.525C711.6 180.059 717.733 178.725 750 172.725C776.4 167.792 791.467 164.592 811.333 159.259C837.467 152.459 845.333 153.125 845.333 162.459C845.2 173.792 839.467 181.125 803.2 215.392C754.667 261.392 715.067 291.392 688 302.459C682.533 304.592 668.4 310.459 656.667 315.392C628.533 327.125 624.933 328.325 605.333 332.592C596.133 334.592 581.2 338.592 572 341.392C562.8 344.325 551.467 347.525 546.667 348.725C532.133 352.325 476.933 370.859 472.267 373.659C459.067 381.792 467.2 386.325 488.667 382.725C493.067 381.925 503.333 380.725 511.333 380.059C519.467 379.259 532 377.792 539.333 376.592C574.533 371.259 585.467 370.459 625.333 370.059C667.733 369.792 672.4 369.259 690.667 362.992C702.667 358.859 718.667 350.192 730 341.792C747.6 328.725 757.467 317.392 814.8 245.259C845.2 206.992 854 194.859 858.4 185.392C863.467 174.059 867.867 158.192 868.8 147.525C869.6 138.325 869.467 137.658 866.533 135.525C863.067 133.125 862 133.125 829.333 134.858ZM609.333 200.059C609.333 200.725 608.8 201.392 608 201.392C607.333 201.392 606.667 200.725 606.667 200.059C606.667 199.259 607.333 198.725 608 198.725C608.8 198.725 609.333 199.259 609.333 200.059ZM732 313.392C732 314.059 731.467 314.725 730.667 314.725C730 314.725 729.333 314.059 729.333 313.392C729.333 312.592 730 312.059 730.667 312.059C731.467 312.059 732 312.592 732 313.392ZM738 314.592C736.933 316.325 733.333 316.592 733.333 314.859C733.333 314.192 734.4 313.392 735.733 313.125C738.533 312.459 739.2 312.859 738 314.592ZM686.667 314.725C686.667 315.392 686.4 316.059 686.133 316.059C685.733 316.059 685.067 315.392 684.667 314.725C684.267 313.925 684.533 313.392 685.2 313.392C686 313.392 686.667 313.925 686.667 314.725ZM718.533 316.859C717.333 318.325 717.467 318.725 719.2 318.725C720.4 318.725 721.333 319.259 721.333 320.059C721.333 321.925 719.2 321.659 717.467 319.525C715.733 317.525 716.933 312.992 718.933 314.192C719.6 314.592 719.467 315.659 718.533 316.859ZM662.267 328.859C661.867 329.259 660.667 329.392 659.733 328.992C658.667 328.592 659.067 328.192 660.533 328.192C662 328.059 662.8 328.459 662.267 328.859ZM672.933 328.859C672.533 329.259 671.333 329.392 670.4 328.992C669.333 328.592 669.733 328.192 671.2 328.192C672.667 328.059 673.467 328.459 672.933 328.859ZM668 333.392C668 334.059 667.467 334.725 666.667 334.725C666 334.725 665.333 334.059 665.333 333.392C665.333 332.592 666 332.059 666.667 332.059C667.467 332.059 668 332.592 668 333.392ZM662.667 340.059C662.667 340.725 662.133 341.392 661.333 341.392C660.667 341.392 660 340.725 660 340.059C660 339.259 660.667 338.725 661.333 338.725C662.133 338.725 662.667 339.259 662.667 340.059ZM593.333 346.725C593.333 347.392 592.667 348.059 591.867 348.059C591.2 348.059 590.933 347.392 591.333 346.725C591.733 345.925 592.4 345.392 592.8 345.392C593.067 345.392 593.333 345.925 593.333 346.725ZM651.333 360.059C651.733 360.725 651.467 361.392 650.8 361.392C650 361.392 649.333 360.725 649.333 360.059C649.333 359.259 649.6 358.725 649.867 358.725C650.267 358.725 650.933 359.259 651.333 360.059Z" fill="#8FA8B8"/>
<path d="M134.667 142.325C128.4 143.392 118.267 145.925 112 148.058C83.0667 157.525 39.6 167.125 26 166.725C18.9333 166.592 4.66667 169.925 1.73333 172.325C0.8 173.125 0 174.992 0 176.592C0 180.725 11.6 197.658 22.4 209.258C27.4667 214.858 37.2 225.525 43.8667 232.992C60.5333 251.525 89.2 276.458 116 295.925C122.267 300.459 130 306.192 133.333 308.725C147.067 319.392 192.667 339.392 229.333 350.992C236.267 353.125 248.267 356.859 256 359.392C263.733 361.792 279.333 366.192 290.667 369.259C302 372.325 317.867 376.592 325.733 378.859C333.6 380.992 345.2 383.659 351.333 384.725C367.333 387.525 382.533 392.592 399.6 400.858C412.133 406.858 415.067 408.858 418.4 413.658C424.133 421.925 433.467 450.325 438.667 475.392C443.6 499.125 446.8 509.792 452.667 521.392C458.8 533.659 462.667 538.192 466 536.992C468.8 535.792 468.533 530.992 464.8 510.325C461.067 490.325 460 477.792 459.333 452.058C458.267 403.792 454.667 377.392 445.2 348.459C439.733 331.792 433.6 322.192 407.2 288.992C404.133 285.125 391.333 266.592 378.8 247.792C354.667 211.925 343.2 197.658 325.867 181.925C310.8 168.458 304.667 164.058 291.2 157.125C266.267 144.325 250.8 141.925 184 140.858C154.533 140.458 143.467 140.725 134.667 142.325ZM193.333 169.658C208.933 172.858 214.267 175.258 225.333 183.392C230.133 186.992 239.333 193.792 246 198.592C252.533 203.392 265.067 212.725 274 219.392C291.067 232.192 293.333 233.658 314 246.725C334.267 259.525 350.133 271.658 371.067 290.592C397.733 314.725 406.133 325.925 415.467 349.392C417.333 354.192 419.2 358.859 419.6 359.925C420.267 361.392 419.6 361.659 417.2 360.992C411.2 359.525 366.133 345.259 338 335.792C298.4 322.592 260.4 312.059 227.333 305.125C187.6 296.725 158.8 283.925 114.8 254.992C99.7333 245.125 92.1333 238.992 80 226.858C70.4 217.258 63.0667 208.725 60.8 204.325C58.8 200.458 57.3333 197.125 57.6 196.858C57.7333 196.725 64.9333 193.392 73.3333 189.525C81.7333 185.658 89.7333 182.058 91.0667 181.258C97.2 177.925 118.8 172.325 142 167.925C157.867 164.992 174 165.525 193.333 169.658ZM34.6667 189.392C34.6667 190.058 34 190.725 33.2 190.725C32.5333 190.725 32.2667 190.058 32.6667 189.392C33.0667 188.592 33.7333 188.058 34.1333 188.058C34.4 188.058 34.6667 188.592 34.6667 189.392ZM268 200.725C268 201.792 267.467 202.725 266.667 202.725C266 202.725 265.333 201.792 265.333 200.725C265.333 199.658 266 198.725 266.667 198.725C267.467 198.725 268 199.658 268 200.725ZM66.6667 246.058C68 247.658 68 248.058 66.1333 248.058C64.9333 248.058 64 247.125 64 246.058C64 244.992 64.2667 244.058 64.5333 244.058C64.8 244.058 65.7333 244.992 66.6667 246.058ZM110.667 280.058C110.667 280.725 110.133 281.392 109.333 281.392C108.667 281.392 108 280.725 108 280.058C108 279.258 108.667 278.725 109.333 278.725C110.133 278.725 110.667 279.258 110.667 280.058ZM202.667 334.725C202.667 335.392 202.4 336.059 202.133 336.059C201.733 336.059 201.067 335.392 200.667 334.725C200.267 333.925 200.533 333.392 201.2 333.392C202 333.392 202.667 333.925 202.667 334.725ZM248 347.259C248 347.659 247.467 348.325 246.667 348.725C246 349.125 245.333 348.859 245.333 348.192C245.333 347.392 246 346.725 246.667 346.725C247.467 346.725 248 346.992 248 347.259ZM306 356.059C306.4 356.725 306.267 357.392 305.467 357.392C304.8 357.392 303.733 356.725 303.333 356.059C302.933 355.259 303.067 354.725 303.867 354.725C304.533 354.725 305.6 355.259 306 356.059ZM418.667 382.725C418.667 383.392 418.133 384.059 417.333 384.059C416.667 384.059 416 383.392 416 382.725C416 381.925 416.667 381.392 417.333 381.392C418.133 381.392 418.667 381.925 418.667 382.725ZM450.667 438.725C450.667 439.392 450.133 440.058 449.333 440.058C448.667 440.058 448 439.392 448 438.725C448 437.925 448.667 437.392 449.333 437.392C450.133 437.392 450.667 437.925 450.667 438.725Z" fill="#8FA8B8"/>
</svg>
